<svg xmlns="http://www.w3.org/2000/svg" viewBox="0 0 24 24"><path fill="#000000" d="M12 2C6.477 2 2 6.477 2 12s4.477 10 10 10 10-4.477 10-10S17.523 2 12 2Zm3.5 14.5c-1.5 0-3-1-3-1s-1.5 1-3 1-3-1.5-3-3.5c0-1.5 1-3.5 3-3.5s3 2 3 2 1-2 3-2 3 2 3 3.5c0 2-1.5 3.5-3 3.5Z"/><circle cx="12" cy="12" r="1.5" fill="#FFFFFF"/><circle cx="9" cy="10" r="1" fill="#FFFFFF"/><circle cx="15" cy="10" r="1" fill="#FFFFFF"/><path fill="#000000" d="M12 14c-1 0-1.5-.5-1.5-.5s.5-.5 1.5-.5 1.5.5 1.5.5-.5.5-1.5.5Z"/></svg>