<svg xmlns="http://www.w3.org/2000/svg" viewBox="0 0 24 24"><path fill="#07C160" d="M12.5 2c-5.247 0-9.5 3.806-9.5 8.5 0 2.936 1.688 5.534 4.312 7.114l-.625 1.886L8.562 18.5A11.3 11.3 0 0 0 12.5 19c5.247 0 9.5-3.806 9.5-8.5S17.747 2 12.5 2Zm4.875 10.375c-.276 0-.5-.224-.5-.5s.224-.5.5-.5.5.224.5.5-.224.5-.5.5Zm-3.25 0c-.276 0-.5-.224-.5-.5s.224-.5.5-.5.5.224.5.5-.224.5-.5.5ZM10.5 4c-4.418 0-8 3.134-8 7 0 2.418 1.417 4.56 3.6 5.864l-.5 1.636 2.064-.818c.873.2 1.836.318 2.836.318 4.418 0 8-3.134 8-7s-3.582-7-8-7Zm3.875 8.125c-.276 0-.5-.224-.5-.5s.224-.5.5-.5.5.224.5.5-.224.5-.5.5Zm-2.75 0c-.276 0-.5-.224-.5-.5s.224-.5.5-.5.5.224.5.5-.224.5-.5.5Z"/></svg>